<?xml version="1.0" encoding="utf-8"?>
<!-- Svg Vector Icons : http://www.onlinewebfonts.com/icon -->
<!DOCTYPE svg PUBLIC "-//W3C//DTD SVG 1.1//EN" "http://www.w3.org/Graphics/SVG/1.1/DTD/svg11.dtd">
<svg version="1.1" xmlns="http://www.w3.org/2000/svg" xmlns:xlink="http://www.w3.org/1999/xlink" x="0px" y="0px" viewBox="0 0 1000 1000" enable-background="new 0 0 1000 1000" xml:space="preserve">
<metadata> Svg Vector Icons : http://www.onlinewebfonts.com/icon </metadata>
<g><g transform="translate(0.000000,511.000000) scale(0.100000,-0.100000)"><path fill="#ffffff" d="M1350.7,4787.5c-179.8-57.3-328-193.6-418.9-385.3l-51.4-110.6l-5.9-634.2l-5.9-634.2l-201.5-11.8c-292.4-15.8-420.9-77.1-515.7-249l-51.4-96.8V-962.1v-3627.6h1264.5H2629v1096.6c0,1070.9,0,1096.6,39.5,1136.1c37.5,37.5,65.2,39.5,727.1,39.5c642.1,0,691.5-2,721.2-35.6c29.6-33.6,33.6-140.3,33.6-1136.1v-1100.5h2874.8H9900l-4,1981.7l-5.9,1979.8l-51.4,108.7c-112.6,233.1-304.3,375.4-565.1,414.9c-92.9,13.8-482.1,19.8-1144,15.8c-995.8-5.9-1007.7-5.9-1118.3-51.4c-61.2-25.7-158.1-86.9-213.4-134.4l-98.8-90.9v1452.2c0,902.9-7.9,1491.7-19.8,1556.9c-25.7,138.3-100.8,231.2-243,302.3c-94.8,47.4-142.3,57.3-318.1,65.2l-207.5,11.8l-5.9,644.1l-5.9,644.1l-51.4,110.6c-65.2,136.3-179.8,254.9-318.1,328l-104.7,55.3l-1995.6,4C1826.9,4811.2,1417.9,4807.2,1350.7,4787.5z M5478.1,4613.6c49.4-31.6,122.5-90.9,162-136.3c122.5-146.2,130.4-191.7,130.4-861.5v-598.7H3389.7H1008.9v563.1c0,320.1,9.9,602.6,21.7,659.9c39.5,189.7,175.8,339.8,367.5,409c61.2,21.7,420.8,25.7,2031.1,21.7l1956-4L5478.1,4613.6z M6379.1,2817.6c47.4-23.7,102.7-71.1,124.5-104.7c35.6-59.3,37.6-160,37.6-3611.8v-3552.5H5414.9H4288.7v1047.2c0,1149.9,2,1134.1-118.5,1195.4c-47.4,25.7-173.9,29.6-790.3,29.6h-731l-75.1-67.2l-73.1-67.2l-5.9-1068.9l-5.9-1068.9H1364.5H238.3v3544.6v3542.6l45.4,67.2c23.7,35.6,79,86.9,122.5,110.6l79,45.4h2902.5h2904.4L6379.1,2817.6z M9435.7-296.3c98.8-51.4,233.1-193.6,280.6-296.4c33.6-71.1,35.6-195.6,41.5-1967.9l4-1890.8H8230.4H6699.2v1892.8v1892.8l51.4,102.7c27.7,55.3,90.9,138.3,140.3,179.8c160,142.3,122.5,138.3,1359.4,134.4C9342.8-252.8,9356.6-252.8,9435.7-296.3z"/><path fill="#ffffff" d="M2623.1,4175c-294.4-81-409-466.3-205.5-697.5c183.8-207.5,541.4-187.7,699.4,37.5c63.2,92.9,85,280.6,45.4,399.1C3093.3,4123.6,2854.3,4240.2,2623.1,4175z M2885.9,4028.8c79-41.5,158.1-175.8,158.1-268.7c0-31.6-19.8-98.8-41.5-146.2c-33.6-69.2-63.2-96.8-132.4-126.5c-209.4-92.9-399.1,41.5-399.1,284.5c0,98.8,7.9,122.5,63.2,185.7c35.6,39.5,81,79,102.7,86.9C2706.1,4074.2,2814.8,4066.3,2885.9,4028.8z"/><path fill="#ffffff" d="M1423.8,3758.1v-424.8h69.2h69.2v177.8v177.8h207.5H1977v-177.8v-177.8h69.2h69.2v424.8v424.8h-69.2H1977v-177.8v-177.8h-207.5h-207.5v177.8v177.8h-69.2h-69.2V3758.1z"/><path fill="#ffffff" d="M3281,4113.7v-69.2h128.4h128.4v-355.6v-355.6h69.2h69.2v355.6v355.6h138.3h138.3v69.2v69.2h-335.9H3281V4113.7z"/><path fill="#ffffff" d="M4114.8,3764l5.9-420.8l312.2-5.9l310.2-5.9v71.1v69.2H4506h-237.1v118.5v118.6h207.5h207.5v59.3v59.3h-207.5h-207.5v118.5v118.6H4506h237.1v59.3v59.3H4427h-316.1L4114.8,3764z"/><path fill="#ffffff" d="M4940.7,3758.1v-424.8h286.5h286.5v69.2v69.2h-217.3H5079v355.6v355.6h-69.2h-69.2V3758.1z"/><path fill="#ffffff" d="M854.8,2108.3c-35.6-21.7-81-67.2-102.7-102.7c-37.5-61.2-39.5-100.8-39.5-594.7c0-592.7,7.9-630.3,128.4-705.4c63.2-39.5,90.9-41.5,630.3-35.6l561.1,5.9l53.3,49.4c106.7,98.8,108.7,114.6,108.7,687.6c0,519.6-2,533.5-45.4,598.7c-86.9,130.4-120.5,136.3-705.4,136.3C955.5,2147.8,916,2145.8,854.8,2108.3z M2018.5,1952.2c35.6-41.5,37.5-83,37.5-549.3V901.1l-49.4-47.4l-47.4-49.4h-505.8H947.6l-47.4,49.4l-49.4,47.4v505.8v505.8l49.4,49.4l49.4,49.4l515.7-5.9C1979,1999.6,1981,1999.6,2018.5,1952.2z"/><path fill="#ffffff" d="M2808.8,2112.2c-37.5-17.8-86.9-59.3-108.7-88.9c-39.5-53.3-41.5-85-47.4-592.7c-5.9-602.6,0-632.3,132.4-719.2c65.2-45.4,79-45.4,610.5-45.4c780.4,0,735-47.4,735,748.8V1966l-51.4,63.2c-98.8,116.6-114.6,118.6-683.6,118.6C2939.2,2147.8,2868.1,2143.9,2808.8,2112.2z M3942.9,1960.1l49.4-47.4v-507.8c0-495.9-2-509.8-43.5-555.2c-41.5-45.4-45.4-45.4-551.2-45.4c-470.2,0-511.7,2-553.2,37.5c-47.4,37.5-47.4,39.5-53.3,527.5c-5.9,515.7,2,578.9,81,616.4c27.7,13.8,233.2,21.7,533.5,21.7l490,2L3942.9,1960.1z"/><path fill="#ffffff" d="M4743.1,2112.2c-43.5-23.7-86.9-69.2-114.6-124.5c-43.5-85-45.4-96.8-39.5-610.5c5.9-580.9,7.9-592.7,140.3-671.8c59.3-35.6,102.7-39.5,602.6-39.5c594.7,0,612.5,4,699.4,122.5c43.5,63.2,45.4,77.1,51.4,588.8c5.9,511.7,4,525.6-39.5,610.5c-79,154.1-104.7,160-707.3,160C4867.6,2147.8,4804.4,2143.9,4743.1,2112.2z M5877.3,1968l51.4-39.5v-523.6c0-495.9-2-523.6-39.5-561.1s-65.2-39.5-553.2-39.5s-515.7,2-553.2,39.5s-39.5,65.2-39.5,561.1v523.6l51.4,39.5c49.4,39.5,77.1,41.5,541.4,41.5C5800.2,2009.5,5827.9,2007.5,5877.3,1968z"/><path fill="#ffffff" d="M840.9,73.2C718.4-7.8,712.5-37.4,712.5-630.2c0-523.6,0-537.4,45.4-602.6c85-128.4,120.5-136.3,695.5-136.3s610.5,7.9,695.5,136.3c43.5,65.2,45.4,79,45.4,598.7c0,592.7-7.9,632.3-128.4,707.3c-59.3,37.5-96.8,39.5-614.5,39.5C935.8,112.7,896.2,110.8,840.9,73.2z M2014.6-77c39.5-49.4,41.5-77,41.5-551.2c0-462.3-2-503.8-37.5-545.3l-37.5-47.4h-527.5H925.9l-37.5,47.4c-35.6,41.5-37.5,83-37.5,545.3c0,474.2,2,501.8,41.5,551.2l39.5,51.4h521.6H1975L2014.6-77z"/><path fill="#ffffff" d="M2816.7,93c-53.3-21.7-120.5-96.8-146.2-164c-13.8-33.6-21.7-250.9-21.7-559.2c0-559.2,7.9-600.6,120.5-681.7c65.2-47.4,75.1-47.4,580.9-53.3c318.1-4,541.4,2,582.9,13.8c39.5,11.9,96.8,47.4,128.4,81l59.3,61.2l5.9,561.1c5.9,624.3,2,646.1-120.5,721.2c-59.3,37.5-100.8,39.5-606.6,37.5C3101.2,110.8,2838.5,102.9,2816.7,93z M3946.9-69c45.4-41.5,45.4-45.4,45.4-551.3c0-470.2-2-511.7-37.5-553.2c-37.5-47.4-39.5-47.4-527.5-53.3c-523.6-5.9-578.9,2-618.4,86.9c-13.8,31.6-21.7,215.4-21.7,533.5v484.1l49.4,47.4l47.4,49.4h507.8C3887.6-25.6,3901.4-27.6,3946.9-69z"/><path fill="#ffffff" d="M4729.3,73.2C4598.9-5.8,4595-17.7,4589-592.6c-5.9-480.1-4-525.6,33.6-606.6c27.7-65.2,59.3-98.8,118.5-128.4c75.1-39.5,112.6-41.5,594.7-41.5c600.7,0,634.2,7.9,711.3,166c39.5,85,41.5,108.7,35.6,608.6c-5.9,576.9-9.9,588.8-140.3,667.8c-59.3,37.5-102.7,39.5-606.6,39.5C4832.1,112.7,4788.6,110.8,4729.3,73.2z M5889.1-65.1c37.5-37.5,39.5-65.2,39.5-561.1v-523.6l-51.4-39.5c-49.4-39.5-77.1-41.5-541.4-41.5c-464.3,0-492,2-541.4,41.5l-51.4,39.5v523.6c0,495.9,2,523.6,39.5,561.1c37.5,37.5,65.2,39.5,553.2,39.5S5851.6-27.6,5889.1-65.1z"/><path fill="#ffffff" d="M870.6-1938.1c-37.5-17.8-88.9-63.2-112.6-100.8c-45.4-65.2-45.4-79-45.4-610.5c0-784.4-39.5-744.9,740.9-744.9c776.5,0,740.9-37.5,740.9,752.8c0,523.6-2,537.4-43.5,600.7c-90.9,132.4-124.5,138.3-697.5,138.3C1002.9-1902.6,931.8-1906.5,870.6-1938.1z M1951.3-2060.6c33.6-11.9,69.2-43.5,83-71.1c13.8-31.6,21.7-213.4,21.7-529.5c0-456.4-2-484.1-41.5-533.5l-39.5-51.4h-517.7c-501.9,0-515.7,2-561.1,43.5c-45.4,41.5-45.4,45.4-45.4,541.4c0,274.6,5.9,513.7,11.9,531.5c29.6,73.1,118.5,86.9,582.9,88.9C1708.3-2040.9,1915.8-2048.8,1951.3-2060.6z"/><path fill="#ffffff" d="M4749.1-1944.1c-59.3-29.6-94.8-65.2-124.5-126.4c-39.5-83-41.5-110.7-35.6-610.5c5.9-575,5.9-571,142.3-671.8c51.4-39.5,79-41.5,604.6-41.5c525.6,0,553.2,2,604.6,41.5c29.6,21.7,73.1,65.2,94.9,94.9c39.5,51.4,41.5,79,41.5,604.6s-2,553.2-41.5,604.6c-21.7,29.6-65.2,73.1-94.9,94.8c-51.4,39.5-85,41.5-580.9,47.4C4857.7-1902.6,4828.1-1904.6,4749.1-1944.1z M5887.1-2088.3c39.5-35.6,41.5-55.3,41.5-559.1c0-494-2-521.6-39.5-559.2s-65.2-39.5-549.3-39.5c-428.8,0-515.7,4-553.2,31.6c-43.5,29.6-43.5,35.6-43.5,559.2c0,565.1,0,563.1,98.8,600.6c15.8,5.9,248.9,9.9,515.7,7.9C5806.1-2050.8,5849.6-2054.7,5887.1-2088.3z"/><path fill="#ffffff" d="M6991.6-1070.8l-65.2-57.3l-5.9-426.8c-9.9-622.4-25.7-604.6,569-604.6c594.7,0,573-21.7,573,578.9v432.7l-67.2,67.2l-67.2,67.2h-436.7h-436.6L6991.6-1070.8z M7900.5-1175.5c17.8-17.8,23.7-134.4,23.7-403.1c0-320.1-5.9-385.3-31.6-411c-47.4-47.4-748.8-47.4-802.2,2c-31.6,27.6-35.6,69.2-35.6,395.2c0,213.4,7.9,379.3,19.7,403.1c19.8,35.6,45.4,37.5,411,37.5C7764.2-1151.8,7882.7-1157.7,7900.5-1175.5z"/><path fill="#ffffff" d="M8453.7-1070.8l-65.2-57.3l-5.9-426.8c-9.9-622.4-25.7-604.6,569-604.6c594.7,0,573-21.7,573,578.9v432.7l-67.2,67.2l-67.2,67.2h-436.7h-436.7L8453.7-1070.8z M9362.6-1175.5c17.8-17.8,23.7-134.4,23.7-403.1c0-320.1-5.9-385.3-31.6-411c-47.4-47.4-748.8-47.4-802.2,2c-31.6,27.6-35.6,69.2-35.6,395.2c0,213.4,7.9,379.3,19.8,403.1c19.8,35.6,45.4,37.5,411,37.5C9226.3-1151.8,9344.8-1157.7,9362.6-1175.5z"/><path fill="#ffffff" d="M7023.2-2572.4c-100.8-61.2-108.7-110.6-102.7-573l5.9-420.8l65.2-57.3l63.2-57.3h436.6h436.7l67.2,67.2l67.2,67.2v438.6v438.6l-67.2,67.2l-67.2,67.2h-420.8C7127.9-2534.8,7078.6-2538.8,7023.2-2572.4z M7886.6-2692.9c35.6-19.8,37.5-45.4,37.5-411c0-278.6-5.9-397.1-23.7-414.9c-17.8-17.8-134.3-23.7-403.1-23.7c-320.1,0-385.3,5.9-411,31.6c-25.7,25.7-31.6,90.9-31.6,403.1c0,312.2,5.9,377.4,31.6,403.1c25.7,25.7,90.9,31.6,395.2,31.6C7697-2673.1,7862.9-2681.1,7886.6-2692.9z"/><path fill="#ffffff" d="M8485.3-2572.4c-100.8-61.2-108.7-110.6-102.7-573l5.9-420.8l65.2-57.3l63.2-57.3h436.7h436.7l67.2,67.2l67.2,67.2v438.6v438.6l-67.2,67.2l-67.2,67.2h-420.8C8590-2534.8,8540.6-2538.8,8485.3-2572.4z M9348.7-2692.9c35.6-19.8,37.5-45.4,37.5-411c0-278.6-5.9-397.1-23.7-414.9c-17.8-17.8-134.4-23.7-403.1-23.7c-320.1,0-385.3,5.9-411,31.6c-25.7,25.7-31.6,90.9-31.6,403.1c0,312.2,5.9,377.4,31.6,403.1c25.7,25.7,90.9,31.6,395.2,31.6C9159.1-2673.1,9325-2681.1,9348.7-2692.9z"/><path fill="#ffffff" d="M3320.6-3601.8v-987.9h69.2h69.2v987.9v987.9h-69.2h-69.2V-3601.8z"/></g></g>
</svg>